<mxfile host="app.diagrams.net" agent="Mozilla/5.0 (Windows NT 10.0; Win64; x64) AppleWebKit/537.36 (KHTML, like Gecko) Chrome/131.0.0.0 Safari/537.36" version="25.0.3">
  <diagram name="Page-1" id="C9H7DjJ6RnpkqnqAJQBR">
    <mxGraphModel dx="1354" dy="668" grid="1" gridSize="10" guides="1" tooltips="1" connect="1" arrows="1" fold="1" page="1" pageScale="1" pageWidth="1169" pageHeight="827" math="0" shadow="0">
      <root>
        <mxCell id="0" />
        <mxCell id="1" parent="0" />
        <mxCell id="Mql6xBhfHuRBjlnz8FHj-1" value="&lt;font style=&quot;font-size: 36px;&quot;&gt;AUTO DRIVING CAR USING LIDAR&lt;/font&gt;&lt;div&gt;&lt;font style=&quot;font-size: 36px;&quot;&gt;&lt;br&gt;&lt;/font&gt;&lt;/div&gt;&lt;div&gt;&lt;font style=&quot;font-size: 36px;&quot;&gt;&lt;br&gt;&lt;/font&gt;&lt;/div&gt;&lt;div&gt;&lt;font style=&quot;font-size: 36px;&quot;&gt;&lt;br&gt;&lt;/font&gt;&lt;/div&gt;&lt;div&gt;&lt;font style=&quot;font-size: 36px;&quot;&gt;&lt;br&gt;&lt;/font&gt;&lt;/div&gt;&lt;div&gt;&lt;font style=&quot;font-size: 36px;&quot;&gt;&lt;br&gt;&lt;/font&gt;&lt;/div&gt;&lt;div&gt;&lt;font style=&quot;font-size: 36px;&quot;&gt;&lt;br&gt;&lt;/font&gt;&lt;/div&gt;&lt;div&gt;&lt;font style=&quot;font-size: 36px;&quot;&gt;&lt;br&gt;&lt;/font&gt;&lt;/div&gt;&lt;div&gt;&lt;font style=&quot;font-size: 36px;&quot;&gt;&lt;br&gt;&lt;/font&gt;&lt;/div&gt;&lt;div&gt;&lt;font style=&quot;font-size: 36px;&quot;&gt;&lt;br&gt;&lt;/font&gt;&lt;/div&gt;&lt;div&gt;&lt;font style=&quot;font-size: 36px;&quot;&gt;&lt;br&gt;&lt;/font&gt;&lt;/div&gt;" style="rounded=1;whiteSpace=wrap;html=1;fillColor=#fff2cc;strokeColor=#d6b656;gradientColor=#ffd966;" vertex="1" parent="1">
          <mxGeometry x="200" y="120" width="760" height="520" as="geometry" />
        </mxCell>
        <mxCell id="Mql6xBhfHuRBjlnz8FHj-2" value="&lt;font style=&quot;font-size: 24px;&quot;&gt;DATA PROCESSING&lt;/font&gt;&lt;div&gt;&lt;font size=&quot;3&quot;&gt;( COMPUTER, JETSON NANO )&lt;/font&gt;&lt;/div&gt;" style="rounded=1;whiteSpace=wrap;html=1;" vertex="1" parent="1">
          <mxGeometry x="410" y="291" width="190" height="120" as="geometry" />
        </mxCell>
        <mxCell id="Mql6xBhfHuRBjlnz8FHj-3" value="&lt;span style=&quot;font-size: 24px;&quot;&gt;MICRO-CONTROLLER&lt;/span&gt;" style="rounded=1;whiteSpace=wrap;html=1;" vertex="1" parent="1">
          <mxGeometry x="410" y="475" width="190" height="120" as="geometry" />
        </mxCell>
        <mxCell id="Mql6xBhfHuRBjlnz8FHj-4" value="&lt;font style=&quot;font-size: 14px;&quot;&gt;POWER SUPPLY&lt;/font&gt;&lt;div&gt;&lt;font size=&quot;3&quot;&gt;&lt;br&gt;&lt;/font&gt;&lt;div&gt;&lt;font style=&quot;&quot; size=&quot;3&quot;&gt;( BATTERY, BUCK-BOOST CONVERTOR, CURENT CONTROL, CHARGING CIRCULT )&lt;/font&gt;&lt;/div&gt;&lt;/div&gt;" style="rounded=1;whiteSpace=wrap;html=1;rotation=-90;fillColor=#dae8fc;strokeColor=#6c8ebf;gradientColor=#7ea6e0;" vertex="1" parent="1">
          <mxGeometry x="80" y="354" width="390" height="100" as="geometry" />
        </mxCell>
        <mxCell id="Mql6xBhfHuRBjlnz8FHj-5" value="&lt;font style=&quot;font-size: 24px;&quot;&gt;CAMERA&lt;/font&gt;" style="rounded=1;whiteSpace=wrap;html=1;" vertex="1" parent="1">
          <mxGeometry x="710" y="291" width="120" height="60" as="geometry" />
        </mxCell>
        <mxCell id="Mql6xBhfHuRBjlnz8FHj-6" value="&lt;font style=&quot;font-size: 18px;&quot;&gt;SENSOR&lt;/font&gt;&lt;div&gt;&lt;font size=&quot;3&quot;&gt;( SONAR )&lt;/font&gt;&lt;/div&gt;" style="rounded=1;whiteSpace=wrap;html=1;" vertex="1" parent="1">
          <mxGeometry x="700" y="535" width="140" height="60" as="geometry" />
        </mxCell>
        <mxCell id="Mql6xBhfHuRBjlnz8FHj-8" style="edgeStyle=orthogonalEdgeStyle;rounded=0;orthogonalLoop=1;jettySize=auto;html=1;exitX=0.5;exitY=1;exitDx=0;exitDy=0;" edge="1" parent="1" source="Mql6xBhfHuRBjlnz8FHj-6" target="Mql6xBhfHuRBjlnz8FHj-6">
          <mxGeometry relative="1" as="geometry" />
        </mxCell>
        <mxCell id="Mql6xBhfHuRBjlnz8FHj-9" value="" style="shape=flexArrow;endArrow=classic;startArrow=classic;html=1;rounded=0;entryX=0.5;entryY=1;entryDx=0;entryDy=0;exitX=0.5;exitY=0;exitDx=0;exitDy=0;" edge="1" parent="1" source="Mql6xBhfHuRBjlnz8FHj-3" target="Mql6xBhfHuRBjlnz8FHj-2">
          <mxGeometry width="100" height="100" relative="1" as="geometry">
            <mxPoint x="430" y="535" as="sourcePoint" />
            <mxPoint x="530" y="435" as="targetPoint" />
          </mxGeometry>
        </mxCell>
        <mxCell id="Mql6xBhfHuRBjlnz8FHj-16" value="" style="shape=flexArrow;endArrow=classic;startArrow=classic;html=1;rounded=0;exitX=0.153;exitY=0.997;exitDx=0;exitDy=0;exitPerimeter=0;fillColor=#bac8d3;strokeColor=#23445d;" edge="1" parent="1" source="Mql6xBhfHuRBjlnz8FHj-4" target="Mql6xBhfHuRBjlnz8FHj-3">
          <mxGeometry width="100" height="100" relative="1" as="geometry">
            <mxPoint x="480" y="560" as="sourcePoint" />
            <mxPoint x="580" y="460" as="targetPoint" />
          </mxGeometry>
        </mxCell>
        <mxCell id="Mql6xBhfHuRBjlnz8FHj-17" value="&lt;font style=&quot;font-size: 24px;&quot;&gt;DATA PROCESSING&lt;/font&gt;&lt;div&gt;&lt;font size=&quot;3&quot;&gt;( COMPUTER, JETSON NANO )&lt;/font&gt;&lt;/div&gt;" style="rounded=1;whiteSpace=wrap;html=1;fillColor=#ffcd28;strokeColor=#d79b00;gradientColor=#ffa500;" vertex="1" parent="1">
          <mxGeometry x="410" y="291" width="190" height="120" as="geometry" />
        </mxCell>
        <mxCell id="Mql6xBhfHuRBjlnz8FHj-18" value="&lt;span style=&quot;font-size: 24px;&quot;&gt;MICRO-CONTROLLER&lt;/span&gt;" style="rounded=1;whiteSpace=wrap;html=1;fillColor=#d5e8d4;gradientColor=#97d077;strokeColor=#82b366;" vertex="1" parent="1">
          <mxGeometry x="410" y="475" width="190" height="120" as="geometry" />
        </mxCell>
        <mxCell id="Mql6xBhfHuRBjlnz8FHj-19" value="&lt;font style=&quot;font-size: 24px;&quot;&gt;CAMERA&lt;/font&gt;" style="rounded=1;whiteSpace=wrap;html=1;fillColor=#dae8fc;gradientColor=#7ea6e0;strokeColor=#6c8ebf;" vertex="1" parent="1">
          <mxGeometry x="710" y="291" width="120" height="60" as="geometry" />
        </mxCell>
        <mxCell id="Mql6xBhfHuRBjlnz8FHj-20" value="&lt;font style=&quot;font-size: 18px;&quot;&gt;SENSOR&lt;/font&gt;&lt;div&gt;&lt;font size=&quot;3&quot;&gt;( SONAR )&lt;/font&gt;&lt;/div&gt;" style="rounded=1;whiteSpace=wrap;html=1;fillColor=#f5f5f5;gradientColor=#b3b3b3;strokeColor=#666666;" vertex="1" parent="1">
          <mxGeometry x="700" y="535" width="140" height="60" as="geometry" />
        </mxCell>
        <mxCell id="Mql6xBhfHuRBjlnz8FHj-21" value="&lt;font style=&quot;font-size: 24px;&quot;&gt;MOTOR MODULE&lt;/font&gt;" style="rounded=1;whiteSpace=wrap;html=1;fillColor=#dae8fc;strokeColor=#6c8ebf;gradientColor=#7ea6e0;" vertex="1" parent="1">
          <mxGeometry x="710" y="430" width="120" height="76" as="geometry" />
        </mxCell>
        <mxCell id="Mql6xBhfHuRBjlnz8FHj-22" style="edgeStyle=orthogonalEdgeStyle;rounded=0;orthogonalLoop=1;jettySize=auto;html=1;exitX=0.5;exitY=1;exitDx=0;exitDy=0;" edge="1" source="Mql6xBhfHuRBjlnz8FHj-20" target="Mql6xBhfHuRBjlnz8FHj-20" parent="1">
          <mxGeometry relative="1" as="geometry" />
        </mxCell>
        <mxCell id="Mql6xBhfHuRBjlnz8FHj-23" value="" style="shape=flexArrow;endArrow=classic;startArrow=classic;html=1;rounded=0;entryX=0.5;entryY=1;entryDx=0;entryDy=0;exitX=0.5;exitY=0;exitDx=0;exitDy=0;fillColor=#bac8d3;strokeColor=#23445d;" edge="1" source="Mql6xBhfHuRBjlnz8FHj-18" target="Mql6xBhfHuRBjlnz8FHj-17" parent="1">
          <mxGeometry width="100" height="100" relative="1" as="geometry">
            <mxPoint x="430" y="535" as="sourcePoint" />
            <mxPoint x="530" y="435" as="targetPoint" />
          </mxGeometry>
        </mxCell>
        <mxCell id="Mql6xBhfHuRBjlnz8FHj-24" value="" style="shape=flexArrow;endArrow=classic;html=1;rounded=0;entryX=1;entryY=0.5;entryDx=0;entryDy=0;fillColor=#dae8fc;strokeColor=#6c8ebf;" edge="1" parent="1" target="Mql6xBhfHuRBjlnz8FHj-20">
          <mxGeometry width="50" height="50" relative="1" as="geometry">
            <mxPoint x="330" y="230" as="sourcePoint" />
            <mxPoint x="670" y="380" as="targetPoint" />
            <Array as="points">
              <mxPoint x="900" y="230" />
              <mxPoint x="900" y="565" />
            </Array>
          </mxGeometry>
        </mxCell>
        <mxCell id="Mql6xBhfHuRBjlnz8FHj-25" value="" style="shape=flexArrow;endArrow=classic;html=1;rounded=0;entryX=1;entryY=0.5;entryDx=0;entryDy=0;fillColor=#dae8fc;strokeColor=#6c8ebf;" edge="1" parent="1" target="Mql6xBhfHuRBjlnz8FHj-19">
          <mxGeometry width="50" height="50" relative="1" as="geometry">
            <mxPoint x="890" y="321" as="sourcePoint" />
            <mxPoint x="680" y="331" as="targetPoint" />
          </mxGeometry>
        </mxCell>
        <mxCell id="Mql6xBhfHuRBjlnz8FHj-26" value="" style="shape=flexArrow;endArrow=classic;html=1;rounded=0;entryX=1;entryY=0.5;entryDx=0;entryDy=0;fillColor=#dae8fc;strokeColor=#6c8ebf;" edge="1" parent="1">
          <mxGeometry width="50" height="50" relative="1" as="geometry">
            <mxPoint x="890" y="467.70000000000005" as="sourcePoint" />
            <mxPoint x="830" y="467.70000000000005" as="targetPoint" />
          </mxGeometry>
        </mxCell>
        <mxCell id="Mql6xBhfHuRBjlnz8FHj-28" value="&lt;font style=&quot;font-size: 24px;&quot;&gt;POWER LINE&lt;/font&gt;" style="text;html=1;align=center;verticalAlign=middle;whiteSpace=wrap;rounded=0;" vertex="1" parent="1">
          <mxGeometry x="580" y="240" width="170" height="30" as="geometry" />
        </mxCell>
        <mxCell id="Mql6xBhfHuRBjlnz8FHj-30" value="" style="shape=flexArrow;endArrow=classic;html=1;rounded=0;exitX=0;exitY=0.5;exitDx=0;exitDy=0;entryX=1;entryY=0.25;entryDx=0;entryDy=0;fillColor=#60a917;strokeColor=#2D7600;" edge="1" parent="1" source="Mql6xBhfHuRBjlnz8FHj-19" target="Mql6xBhfHuRBjlnz8FHj-17">
          <mxGeometry width="50" height="50" relative="1" as="geometry">
            <mxPoint x="550" y="461" as="sourcePoint" />
            <mxPoint x="610" y="321" as="targetPoint" />
          </mxGeometry>
        </mxCell>
        <mxCell id="Mql6xBhfHuRBjlnz8FHj-31" value="" style="shape=flexArrow;endArrow=classic;html=1;rounded=0;exitX=0;exitY=0.5;exitDx=0;exitDy=0;entryX=1;entryY=0.75;entryDx=0;entryDy=0;fillColor=#60a917;strokeColor=#2D7600;" edge="1" parent="1" source="Mql6xBhfHuRBjlnz8FHj-20" target="Mql6xBhfHuRBjlnz8FHj-18">
          <mxGeometry width="50" height="50" relative="1" as="geometry">
            <mxPoint x="695" y="564.63" as="sourcePoint" />
            <mxPoint x="610" y="560" as="targetPoint" />
            <Array as="points">
              <mxPoint x="650" y="565" />
            </Array>
          </mxGeometry>
        </mxCell>
        <mxCell id="Mql6xBhfHuRBjlnz8FHj-32" value="" style="shape=flexArrow;endArrow=classic;startArrow=classic;html=1;rounded=0;entryX=0;entryY=0.5;entryDx=0;entryDy=0;exitX=1;exitY=0.5;exitDx=0;exitDy=0;fillColor=#bac8d3;strokeColor=#23445d;" edge="1" parent="1" source="Mql6xBhfHuRBjlnz8FHj-18" target="Mql6xBhfHuRBjlnz8FHj-21">
          <mxGeometry width="100" height="100" relative="1" as="geometry">
            <mxPoint x="530" y="490" as="sourcePoint" />
            <mxPoint x="630" y="390" as="targetPoint" />
            <Array as="points">
              <mxPoint x="680" y="535" />
              <mxPoint x="680" y="468" />
            </Array>
          </mxGeometry>
        </mxCell>
        <mxCell id="Mql6xBhfHuRBjlnz8FHj-33" value="WIFI MODULE" style="rounded=1;whiteSpace=wrap;html=1;fillColor=#f5f5f5;gradientColor=#b3b3b3;strokeColor=#666666;" vertex="1" parent="1">
          <mxGeometry x="710" y="360" width="120" height="60" as="geometry" />
        </mxCell>
        <mxCell id="Mql6xBhfHuRBjlnz8FHj-35" value="" style="shape=flexArrow;endArrow=classic;startArrow=classic;html=1;rounded=0;entryX=0;entryY=0.5;entryDx=0;entryDy=0;exitX=1;exitY=0.825;exitDx=0;exitDy=0;exitPerimeter=0;fillColor=#bac8d3;strokeColor=#23445d;" edge="1" parent="1" source="Mql6xBhfHuRBjlnz8FHj-17" target="Mql6xBhfHuRBjlnz8FHj-33">
          <mxGeometry width="100" height="100" relative="1" as="geometry">
            <mxPoint x="570" y="510" as="sourcePoint" />
            <mxPoint x="670" y="410" as="targetPoint" />
          </mxGeometry>
        </mxCell>
      </root>
    </mxGraphModel>
  </diagram>
</mxfile>
